<svg width="136" height="54" viewBox="0 0 136 54" fill="none" xmlns="http://www.w3.org/2000/svg">
<g filter="url(#filter0_d_356_4324)">
<path fill-rule="evenodd" clip-rule="evenodd" d="M28.6504 6.00009C29.63 5.99192 30.5176 6.57015 30.8971 7.46376L45.8534 42.6848C46.37 43.9013 45.792 45.3018 44.5624 45.8129C43.3329 46.324 41.9174 45.7521 41.4008 44.5356L28.7244 14.6837L16.6572 44.4983C16.1615 45.7233 14.7559 46.3187 13.5178 45.8282C12.2797 45.3376 11.6779 43.947 12.1737 42.722L26.429 7.50102C26.7932 6.6012 27.6707 6.00825 28.6504 6.00009Z" fill="#52AFA8"/>
<path d="M55.3655 24.3576C57.5499 24.3576 59.4662 24.7846 61.1144 25.6385C62.7825 26.4924 64.0634 27.7136 64.957 29.3023C65.8705 30.8711 66.3272 32.698 66.3272 34.7831C66.3272 36.8682 65.8705 38.6952 64.957 40.264C64.0634 41.8129 62.7825 43.0143 61.1144 43.8682C59.4662 44.7221 57.5499 45.1491 55.3655 45.1491H48.0974V24.3576H55.3655ZM55.2166 41.6044C57.401 41.6044 59.0889 41.0087 60.2804 39.8172C61.4719 38.6257 62.0676 36.9477 62.0676 34.7831C62.0676 32.6186 61.4719 30.9307 60.2804 29.7193C59.0889 28.4881 57.401 27.8725 55.2166 27.8725H52.2676V41.6044H55.2166Z" fill="#7DCBC3"/>
<path d="M71.5637 26.681C70.8289 26.681 70.2133 26.4526 69.7169 25.9959C69.2403 25.5193 69.002 24.9335 69.002 24.2385C69.002 23.5434 69.2403 22.9675 69.7169 22.5108C70.2133 22.0342 70.8289 21.7959 71.5637 21.7959C72.2985 21.7959 72.9041 22.0342 73.3807 22.5108C73.8772 22.9675 74.1254 23.5434 74.1254 24.2385C74.1254 24.9335 73.8772 25.5193 73.3807 25.9959C72.9041 26.4526 72.2985 26.681 71.5637 26.681ZM73.619 28.647V45.1491H69.4488V28.647H73.619Z" fill="#7DCBC3"/>
<path d="M86.8839 28.4087C88.8498 28.4087 90.4385 29.0342 91.6498 30.2853C92.8612 31.5165 93.4669 33.2441 93.4669 35.4682V45.1491H89.2966V36.0342C89.2966 34.7236 88.969 33.7207 88.3137 33.0257C87.6583 32.3108 86.7647 31.9533 85.6328 31.9533C84.481 31.9533 83.5676 32.3108 82.8924 33.0257C82.2371 33.7207 81.9094 34.7236 81.9094 36.0342V45.1491H77.7392V28.647H81.9094V30.7023C82.4654 29.9874 83.1704 29.4314 84.0243 29.0342C84.8981 28.6172 85.8513 28.4087 86.8839 28.4087Z" fill="#7DCBC3"/>
<path d="M96.3602 36.8385C96.3602 35.1704 96.6878 33.6909 97.3432 32.4002C98.0183 31.1094 98.9318 30.1165 100.084 29.4214C101.235 28.7264 102.516 28.3789 103.926 28.3789C104.998 28.3789 106.021 28.6172 106.994 29.0938C107.967 29.5505 108.742 30.1661 109.318 30.9406V23.1065H113.547V45.1491H109.318V42.7065C108.801 43.5207 108.076 44.176 107.143 44.6725C106.21 45.169 105.128 45.4172 103.896 45.4172C102.506 45.4172 101.235 45.0597 100.084 44.3448C98.9318 43.6299 98.0183 42.6271 97.3432 41.3363C96.6878 40.0257 96.3602 38.5264 96.3602 36.8385ZM109.347 36.898C109.347 35.8853 109.149 35.0214 108.752 34.3065C108.355 33.5718 107.818 33.0158 107.143 32.6385C106.468 32.2413 105.743 32.0427 104.969 32.0427C104.194 32.0427 103.479 32.2314 102.824 32.6087C102.169 32.986 101.633 33.542 101.215 34.2768C100.818 34.9916 100.62 35.8455 100.62 36.8385C100.62 37.8314 100.818 38.7051 101.215 39.4597C101.633 40.1945 102.169 40.7604 102.824 41.1576C103.499 41.5548 104.214 41.7533 104.969 41.7533C105.743 41.7533 106.468 41.5647 107.143 41.1874C107.818 40.7902 108.355 40.2342 108.752 39.5193C109.149 38.7846 109.347 37.9108 109.347 36.898Z" fill="#7DCBC3"/>
<path d="M116.548 36.8385C116.548 35.1704 116.876 33.6909 117.531 32.4002C118.206 31.1094 119.11 30.1165 120.242 29.4214C121.393 28.7264 122.674 28.3789 124.084 28.3789C125.315 28.3789 126.388 28.6271 127.301 29.1236C128.235 29.62 128.979 30.2455 129.535 31.0002V28.647H133.735V45.1491H129.535V42.7363C128.999 43.5108 128.254 44.1562 127.301 44.6725C126.368 45.169 125.286 45.4172 124.054 45.4172C122.664 45.4172 121.393 45.0597 120.242 44.3448C119.11 43.6299 118.206 42.6271 117.531 41.3363C116.876 40.0257 116.548 38.5264 116.548 36.8385ZM129.535 36.898C129.535 35.8853 129.337 35.0214 128.94 34.3065C128.542 33.5718 128.006 33.0158 127.331 32.6385C126.656 32.2413 125.931 32.0427 125.157 32.0427C124.382 32.0427 123.667 32.2314 123.012 32.6087C122.357 32.986 121.82 33.542 121.403 34.2768C121.006 34.9916 120.808 35.8455 120.808 36.8385C120.808 37.8314 121.006 38.7051 121.403 39.4597C121.82 40.1945 122.357 40.7604 123.012 41.1576C123.687 41.5548 124.402 41.7533 125.157 41.7533C125.931 41.7533 126.656 41.5647 127.331 41.1874C128.006 40.7902 128.542 40.2342 128.94 39.5193C129.337 38.7846 129.535 37.9108 129.535 36.898Z" fill="#7DCBC3"/>
</g>
<defs>
<filter id="filter0_d_356_4324" x="0.728172" y="0.364086" width="135.261" height="53.5262" filterUnits="userSpaceOnUse" color-interpolation-filters="sRGB">
<feFlood flood-opacity="0" result="BackgroundImageFix"/>
<feColorMatrix in="SourceAlpha" type="matrix" values="0 0 0 0 0 0 0 0 0 0 0 0 0 0 0 0 0 0 127 0" result="hardAlpha"/>
<feOffset dx="-4.50873" dy="1.12718"/>
<feGaussianBlur stdDeviation="3.38155"/>
<feComposite in2="hardAlpha" operator="out"/>
<feColorMatrix type="matrix" values="0 0 0 0 0 0 0 0 0 0 0 0 0 0 0 0 0 0 0.15 0"/>
<feBlend mode="normal" in2="BackgroundImageFix" result="effect1_dropShadow_356_4324"/>
<feBlend mode="normal" in="SourceGraphic" in2="effect1_dropShadow_356_4324" result="shape"/>
</filter>
</defs>
</svg>
